PathFileType	4	(X/Y/Z)	C:/Users/opensim2020/Desktop/walking_exp_matlab/subject02_walking11_straight_03.trc																																																																																																																												
DataRate	CameraRate	NumFrames	NumMarkers	Units	OrigDataRate	OrigDataStartFrame	OrigNumFrames																																																																																																																								
100	100	4	42	mm	100	2380	250																																																																																																																								
Frame#	Time	LFHD			RFHD			LBHD			RBHD			C7			T10			CLAV			STRN			RBAK			LSHO			LUPA			LELB			LFRM			LWRA			LWRB			LFIN			RSHO			RUPA			RELB			RFRM			RWRA			RWRB			RFIN			LASI			RASI			LPSI			RPSI			LTHI			LKNE			LTIB			LANK			LHEE			LTOE			RTHI			RKNE			RTIB			RANK			RHEE			RTOE			*39			*40			*41		
		X1	Y1	Z1	X2	Y2	Z2	X3	Y3	Z3	X4	Y4	Z4	X5	Y5	Z5	X6	Y6	Z6	X7	Y7	Z7	X8	Y8	Z8	X9	Y9	Z9	X10	Y10	Z10	X11	Y11	Z11	X12	Y12	Z12	X13	Y13	Z13	X14	Y14	Z14	X15	Y15	Z15	X16	Y16	Z16	X17	Y17	Z17	X18	Y18	Z18	X19	Y19	Z19	X20	Y20	Z20	X21	Y21	Z21	X22	Y22	Z22	X23	Y23	Z23	X24	Y24	Z24	X25	Y25	Z25	X26	Y26	Z26	X27	Y27	Z27	X28	Y28	Z28	X29	Y29	Z29	X30	Y30	Z30	X31	Y31	Z31	X32	Y32	Z32	X33	Y33	Z33	X34	Y34	Z34	X35	Y35	Z35	X36	Y36	Z36	X37	Y37	Z37	X38	Y38	Z38	X39	Y39	Z39	X40	Y40	Z40	X41	Y41	Z41	X42	Y42	Z42
																																																																																																																															
1	0	-923.10864	1730.67175	1391.80347	-929.46661	1706.71619	1534.00781	-1036.61438	1633.79517	1372.11292	-1054.70276	1605.58081	1511.66077	-1076.34241	1505.24084	1424.23682	-1147.65906	1237.3866	1414.87061	-940.42059	1432.95447	1426.06921	-902.46136	1254.27405	1426.35889	-1153.73962	1337.12354	1470.39233	-980.13763	1492.97864	1254.75842	-947.43207	1299.8075	1163.62268	-904.41943	1160.99292	1152.25891	-832.21765	1049.29077	1166.51306	-738.55865	973.95947	1237.32214	-765.7533	949.48206	1193.21033	-715.45111	909.33148	1205.14441	-1022.85913	1453.40796	1616.17188	-1080.71375	1262.99243	1683.01038	-1080.09399	1118.00232	1702.37183	-1060.75781	1001.78223	1731.23645	-1012.43536	873.66986	1727.17419	-1064.40344	871.68164	1746.16821	-1031.28772	809.15533	1760.09534	-935.39148	959.1366	1285.9906	-928.30811	959.17303	1543.27332	-1140.25696	1011.79468	1370.82251	-1145.00122	1013.34448	1485.4989	-1041.39368	651.60199	1251.71887	-1106.18311	458.88861	1284.77148	-1203.76575	289.09607	1284.13	-1252.47229	70.6515	1324.03882	-1297.06384	47.04301	1372.44482	-1100.06641	26.53346	1322.26025	-954.03271	669.86517	1644.38379	-887.76221	470.13455	1623.07007	-871.02435	286.45813	1649.91931	-820.13702	95.45615	1640.2677	-829.0705	30.64684	1586.09424	-658.52728	80.56079	1664.82617	-1040.29297	1772.98035	1476.24292	NaN	NaN	NaN	NaN	NaN	NaN
2	0.01	-915.93774	1729.85583	1394.8916	-922.1554	1705.81702	1537.00891	-1029.29211	1632.73169	1375.13953	-1047.22058	1604.40088	1514.71265	-1068.60706	1504.11841	1427.48389	-1139.31116	1235.96765	1418.23608	-932.55005	1432.01233	1428.87146	-894.06232	1253.46057	1429.05273	-1145.53711	1335.60205	1473.75305	-972.84888	1491.99048	1257.6228	-940.92529	1298.5658	1166.20886	-898.63544	1159.69202	1154.58716	-826.49365	1047.52649	1168.66699	-732.42523	972.65747	1239.51111	-760.45587	947.68793	1195.09192	-710.34991	907.39392	1206.5542	-1014.52765	1452.13513	1619.16382	-1072.26367	1261.75378	1685.96899	-1071.57703	1116.41516	1704.86206	-1053.83594	1000.69946	1734.02148	-1006.48999	872.0401	1730.29724	-1058.77283	870.71783	1749.08972	-1026.12952	807.70239	1763.15662	-927.32117	957.85632	1288.84741	-918.39648	958.70038	1546.40723	-1131.84875	1010.51453	1374.64282	-1136.19653	1012.06055	1489.15295	-1034.53076	650.77032	1254.04749	-1100.22473	458.43774	1286.42664	-1200.08801	290.05811	1285.14441	-1251.80701	72.00343	1324.13049	-1296.65259	48.76456	1372.38794	-1099.93005	26.46867	1322.19128	-941.23602	669.46228	1646.99463	-877.12512	469.1254	1624.6366	-862.66046	284.72934	1649.90381	-814.83075	93.09762	1638.57813	-824.88904	28.90564	1584.06299	-653.54449	76.05596	1662.64929	-1032.94824	1771.52136	1479.38928	NaN	NaN	NaN	NaN	NaN	NaN
3	0.02	-908.75134	1729.21558	1397.96179	-914.77942	1704.8446	1540.01563	-1021.78424	1631.59949	1378.26672	-1039.54053	1603.12781	1517.79688	-1060.79968	1502.97632	1430.73987	-1130.98218	1234.65283	1421.82813	-924.51514	1431.13074	1431.8302	-885.77771	1252.53027	1431.72437	-1137.24133	1334.19922	1477.10962	-965.37689	1490.94238	1260.59558	-934.46356	1297.36694	1168.97607	-893.15826	1158.48828	1156.80664	-821.67096	1045.71191	1170.9447	-728.0932	970.24298	1240.37659	-755.73169	945.62482	1196.85876	-705.63831	905.10529	1208.15674	-1006.20392	1451.05054	1622.27979	-1063.73682	1260.58276	1688.97205	-1063.31128	1115.33667	1707.66296	-1046.52148	999.57904	1736.87927	-1000.37665	870.41736	1733.32214	-1052.65759	869.7038	1752.10657	-1020.64642	806.28516	1766.27905	-919.43689	956.54834	1291.51855	-909.25879	957.81927	1549.18555	-1123.19226	1009.17841	1378.56531	-1127.08911	1010.62372	1492.92432	-1027.75159	650.08777	1256.20776	-1094.03833	458.05032	1287.98767	-1196.28284	291.07242	1286.23779	-1251.09155	73.57024	1324.16797	-1296.10828	50.85588	1372.35986	-1099.86182	26.40414	1321.97095	-928.58282	668.76471	1649.7616	-867.05402	467.61404	1625.90967	-855.17218	282.65964	1649.65479	-810.43323	90.56717	1636.6731	-821.66675	27.03138	1581.87964	-649.47571	71.37565	1660.24768	-1025.92896	1770.40125	1482.61584	NaN	NaN	NaN	NaN	NaN	NaN
4	0.03	-901.43506	1728.28125	1401.20288	-907.37659	1703.95508	1543.16248	-1014.27344	1630.48389	1381.4303	-1031.95386	1601.94092	1520.97388	-1052.96924	1501.75476	1434.04858	-1122.50024	1233.22351	1425.5238	-916.44641	1430.2334	1434.82666	-877.38428	1251.77478	1434.59424	-1128.77307	1332.76892	1480.6322	-957.89172	1489.89331	1263.62646	-928.24683	1296.24402	1171.89709	-887.98206	1157.24353	1159.1228	-816.66541	1043.86829	1173.10388	-723.01312	967.90332	1242.15613	-751.20355	943.28357	1198.61755	-701.33832	902.44818	1209.64868	-997.66022	1450.08948	1625.5813	-1055.09766	1259.38123	1691.98804	-1055.3446	1114.85706	1710.78564	-1039.08264	998.56415	1739.97107	-993.90399	869.05371	1736.57483	-1046.3241	868.74078	1755.10059	-1014.91565	804.9787	1769.50305	-910.76617	955.49158	1294.84863	-899.42236	957.38232	1552.4668	-1114.30872	1007.82489	1382.79077	-1117.85522	1009.26831	1496.92712	-1020.86676	649.48383	1258.52832	-1087.80847	457.71375	1289.89673	-1192.48987	292.33841	1287.42786	-1250.38904	75.28928	1324.20142	-1295.57434	53.17504	1372.35095	-1099.75269	26.44816	1321.89661	-916.88959	667.80695	1652.0481	-857.19202	466.39957	1627.54907	-848.23792	280.43262	1649.5813	-806.77539	88.06724	1634.83276	-820.06677	25.6022	1580.63257	-646.00592	65.94006	1657.31372	-1018.82147	1769.25769	1485.86987	2845.83984	1034.21021	-3356.77808	NaN	NaN	NaN
